<svg id="Layer_1" data-name="Layer 1" xmlns="http://www.w3.org/2000/svg" xmlns:xlink="http://www.w3.org/1999/xlink" viewBox="0 0 120.96 139.88"><defs><style>.cls-1{fill:none;}.cls-2{clip-path:url(#clip-path);}</style><clipPath id="clip-path" transform="translate(-126.27 -119.83)"><rect class="cls-1" width="375" height="375"/></clipPath></defs><title>NJ Consulting -No Slogan</title><g class="cls-2"><path d="M199.05,121v71.2h-.5l-55.5-54.7h-.4V191h-4.6v-71.2h.5l55.5,54.7h.4V121Z" transform="translate(-126.27 -119.83)"/><path d="M229.25,157v50.2a52.12,52.12,0,0,1-.5,6.9A17.35,17.35,0,0,1,226.3,221a14.57,14.57,0,0,1-6,5.2q-4,2.06-10.9,2.05-9.6,0-14.4-4.2t-5-11.9h8.8a14.46,14.46,0,0,0,.54,3.65,12.41,12.41,0,0,0,1.8,3.85,9.79,9.79,0,0,0,3.38,3,11,11,0,0,0,5.43,1.2,9.06,9.06,0,0,0,5.82-1.65,10,10,0,0,0,3-4.1,16.33,16.33,0,0,0,1.15-5.3q.15-2.85.15-5.25V157Z" transform="translate(-126.27 -119.83)"/><path d="M142.81,251.29a7.21,7.21,0,0,1-.91.84,7.43,7.43,0,0,1-1.5.9,11.08,11.08,0,0,1-2.11.71,12.09,12.09,0,0,1-2.75.29,10.4,10.4,0,0,1-4.18-.76,8.22,8.22,0,0,1-2.88-2,8,8,0,0,1-1.67-2.83,10.21,10.21,0,0,1-.54-3.28,8.79,8.79,0,0,1,.68-3.51,7.58,7.58,0,0,1,1.89-2.69,8.42,8.42,0,0,1,2.94-1.72,11.49,11.49,0,0,1,3.81-.6,10.42,10.42,0,0,1,2.56.29,7.37,7.37,0,0,1,2,.79,5.53,5.53,0,0,1,1.41,1.2,7.1,7.1,0,0,1,.92,1.51h-1.78a3,3,0,0,0-.58-1,4.19,4.19,0,0,0-1.08-.88,6.81,6.81,0,0,0-3.4-.86,7,7,0,0,0-2.8.55,6.76,6.76,0,0,0-2.22,1.54,7,7,0,0,0-1.45,2.34,8.4,8.4,0,0,0-.51,3,8.92,8.92,0,0,0,.49,3,7.38,7.38,0,0,0,1.45,2.49,7,7,0,0,0,2.4,1.73,8,8,0,0,0,3.31.65,8.18,8.18,0,0,0,5.81-2.31Z" transform="translate(-126.27 -119.83)"/><path d="M156.92,247.76a6.62,6.62,0,0,1-.43,2.39,6.11,6.11,0,0,1-1.24,2,5.76,5.76,0,0,1-1.94,1.36,6.19,6.19,0,0,1-2.56.51,6.26,6.26,0,0,1-2.6-.52,5.83,5.83,0,0,1-2-1.38,6.32,6.32,0,0,1-1.25-2,6.63,6.63,0,0,1,0-4.75,6.49,6.49,0,0,1,1.25-2,6.12,6.12,0,0,1,2-1.38,6.42,6.42,0,0,1,2.6-.51,6.19,6.19,0,0,1,2.56.51,6,6,0,0,1,3.18,3.39A6.6,6.6,0,0,1,156.92,247.76Zm-2.28,0a8.52,8.52,0,0,0-.36-2.72,4.17,4.17,0,0,0-.93-1.62,3.08,3.08,0,0,0-1.28-.78,4.59,4.59,0,0,0-2.68,0,3.11,3.11,0,0,0-1.29.78,4.19,4.19,0,0,0-1,1.62,8.22,8.22,0,0,0-.37,2.72,8.09,8.09,0,0,0,.37,2.7,4.19,4.19,0,0,0,1,1.62,2.92,2.92,0,0,0,1.29.78,4.38,4.38,0,0,0,2.68,0,2.89,2.89,0,0,0,1.28-.78,4.17,4.17,0,0,0,.93-1.62A8.39,8.39,0,0,0,154.64,247.76Z" transform="translate(-126.27 -119.83)"/><path d="M168,253.74v-7.9c0-.16,0-.41,0-.76a3.44,3.44,0,0,0-.3-1.06,2.43,2.43,0,0,0-.81-.92,2.61,2.61,0,0,0-1.56-.4,3.36,3.36,0,0,0-1.21.22,2.7,2.7,0,0,0-1,.67,3,3,0,0,0-.72,1.13,4.25,4.25,0,0,0-.27,1.6v7.42h-2v-12h2v1.54h.1l.38-.39a4.57,4.57,0,0,1,1.71-1.14,4.2,4.2,0,0,1,1.56-.27,4.6,4.6,0,0,1,2.44.54,3.4,3.4,0,0,1,1.26,1.27,3.81,3.81,0,0,1,.47,1.49c.05.5.07.9.07,1.18v7.78Z" transform="translate(-126.27 -119.83)"/><path d="M180.28,244.48a1.66,1.66,0,0,0-.17-.68,2,2,0,0,0-.52-.66,3.28,3.28,0,0,0-.89-.5,3.33,3.33,0,0,0-1.24-.2,3,3,0,0,0-1.2.2,2.28,2.28,0,0,0-.76.5,1.82,1.82,0,0,0-.41.65,2,2,0,0,0-.12.66,1.35,1.35,0,0,0,.54,1.15,4.75,4.75,0,0,0,1.35.7c.54.19,1.13.38,1.76.55a9.76,9.76,0,0,1,1.76.69,4.07,4.07,0,0,1,1.35,1.11,3,3,0,0,1,.54,1.85,3.25,3.25,0,0,1-1.12,2.56,5,5,0,0,1-3.32,1,6.93,6.93,0,0,1-2.15-.3,4.79,4.79,0,0,1-1.56-.81,3.19,3.19,0,0,1-1-1.14,2.89,2.89,0,0,1-.31-1.3h1.56a2,2,0,0,0,.18.72,2.77,2.77,0,0,0,.6.85,3.64,3.64,0,0,0,1.08.72,3.91,3.91,0,0,0,1.62.3,3.34,3.34,0,0,0,1.27-.21,2.11,2.11,0,0,0,.79-.5,1.63,1.63,0,0,0,.4-.66,2.49,2.49,0,0,0,.11-.7,1.56,1.56,0,0,0-.53-1.24,4.2,4.2,0,0,0-1.32-.76c-.52-.2-1.09-.38-1.71-.55a9.19,9.19,0,0,1-1.71-.66,3.94,3.94,0,0,1-1.31-1.08,2.91,2.91,0,0,1-.53-1.83,3.38,3.38,0,0,1,.31-1.47,3.08,3.08,0,0,1,.85-1.07,3.72,3.72,0,0,1,1.27-.65,5.67,5.67,0,0,1,1.57-.21,6,6,0,0,1,1.66.22,4.94,4.94,0,0,1,1.37.63,3.08,3.08,0,0,1,.92.95,2.26,2.26,0,0,1,.33,1.2Z" transform="translate(-126.27 -119.83)"/><path d="M187.55,241.74v7.92c0,.16,0,.41,0,.76a2.86,2.86,0,0,0,.33,1,2.52,2.52,0,0,0,.84.92,2.64,2.64,0,0,0,1.57.4,3.23,3.23,0,0,0,1.2-.22,2.68,2.68,0,0,0,1-.66,3.08,3.08,0,0,0,.69-1.11,4.34,4.34,0,0,0,.27-1.61v-7.44h2v12h-2v-1.51h-.1l-.38.38a4.7,4.7,0,0,1-1.67,1.14,4.21,4.21,0,0,1-1.52.28,4.68,4.68,0,0,1-2.46-.54,3.57,3.57,0,0,1-1.29-1.27,4.08,4.08,0,0,1-.49-1.49,10.31,10.31,0,0,1-.08-1.19v-7.8Z" transform="translate(-126.27 -119.83)"/><path d="M202,253.74h-2v-16.8h2Z" transform="translate(-126.27 -119.83)"/><path d="M205.09,242.7v-1h2.09V238h2v3.7h2.9v1h-2.9v8c0,.19,0,.41,0,.66a2.49,2.49,0,0,0,.15.69,1.22,1.22,0,0,0,.37.54,1,1,0,0,0,.71.22,1.23,1.23,0,0,0,1-.43,4.14,4.14,0,0,0,.62-.94l1.13,1.15a3.67,3.67,0,0,1-2.67,1.18,3.46,3.46,0,0,1-1.22-.22,2.91,2.91,0,0,1-1.07-.66,3.15,3.15,0,0,1-.75-1.14,4.06,4.06,0,0,1-.29-1.63V242.7Z" transform="translate(-126.27 -119.83)"/><path d="M216.16,237a1.21,1.21,0,0,1,.91-.39,1.24,1.24,0,0,1,.91.39,1.25,1.25,0,0,1,.38.91,1.27,1.27,0,0,1-.38.91,1.23,1.23,0,0,1-.91.38,1.2,1.2,0,0,1-.91-.38,1.24,1.24,0,0,1-.39-.91A1.23,1.23,0,0,1,216.16,237Zm2,4.7v12h-2v-12Z" transform="translate(-126.27 -119.83)"/><path d="M230.67,253.74v-7.9c0-.16,0-.41,0-.76a3.44,3.44,0,0,0-.3-1.06,2.43,2.43,0,0,0-.81-.92,2.61,2.61,0,0,0-1.56-.4,3.36,3.36,0,0,0-1.21.22,2.7,2.7,0,0,0-1,.67,3,3,0,0,0-.72,1.13,4.25,4.25,0,0,0-.27,1.6v7.42h-2v-12h2v1.54h.1l.38-.39a4.57,4.57,0,0,1,1.71-1.14,4.2,4.2,0,0,1,1.56-.27,4.6,4.6,0,0,1,2.44.54,3.4,3.4,0,0,1,1.26,1.27,3.81,3.81,0,0,1,.47,1.49c.05.5.07.9.07,1.18v7.78Z" transform="translate(-126.27 -119.83)"/><path d="M245.2,251.82h-.1a2.91,2.91,0,0,1-1.4,1.68,5,5,0,0,1-2.34.53,5.39,5.39,0,0,1-2.23-.45,4.84,4.84,0,0,1-1.71-1.27,5.93,5.93,0,0,1-1.12-2,8.16,8.16,0,0,1-.39-2.6,8,8,0,0,1,.39-2.57,5.83,5.83,0,0,1,1.12-2,5,5,0,0,1,1.73-1.26,5.38,5.38,0,0,1,2.23-.44,4.77,4.77,0,0,1,2.48.56,2.6,2.6,0,0,1,1.24,1.57h.1v-1.87h2v11.78a11.7,11.7,0,0,1-.23,2.32,5.2,5.2,0,0,1-.86,2,4.22,4.22,0,0,1-1.75,1.38,7.24,7.24,0,0,1-3,.52,5.55,5.55,0,0,1-1.75-.26,5.37,5.37,0,0,1-1.32-.6,5.52,5.52,0,0,1-.91-.69,4.87,4.87,0,0,1-.53-.57l1.31-1.2a6.64,6.64,0,0,0,1.43,1.73,3.14,3.14,0,0,0,2.06.65,4.08,4.08,0,0,0,1.36-.22,2.81,2.81,0,0,0,1.11-.69,3.39,3.39,0,0,0,.73-1.25,5.68,5.68,0,0,0,.27-1.87Zm0-5a6,6,0,0,0-.22-1.58,4.49,4.49,0,0,0-.64-1.36,3.12,3.12,0,0,0-1.05-.93,2.77,2.77,0,0,0-1.42-.35,4.73,4.73,0,0,0-1,.15,3.19,3.19,0,0,0-1.25.69,4.32,4.32,0,0,0-1.07,1.52,6.46,6.46,0,0,0-.46,2.68,7.56,7.56,0,0,0,.37,2.59,4.31,4.31,0,0,0,.94,1.56,3.11,3.11,0,0,0,1.23.76,4.44,4.44,0,0,0,1.24.2,2.85,2.85,0,0,0,1.25-.28,3,3,0,0,0,1.06-.8,4,4,0,0,0,.74-1.3,5.3,5.3,0,0,0,.28-1.77Z" transform="translate(-126.27 -119.83)"/></g></svg>